<svg xmlns="http://www.w3.org/2000/svg" viewBox="0 0 134.38 133.43"><defs><style>.cls-1{fill:#fff;}</style></defs><g id="Layer_2" data-name="Layer 2"><g id="Layer_1-2" data-name="Layer 1"><path class="cls-1" d="M80.34,66.66v60c0,1,0,2,0,3-.17,4-.45,4.27-4.5,3.38Q50,127.29,24.15,121.5c-6.82-1.52-13.65-3-20.49-4.46C1,116.48,0,115.28,0,112.27.18,82.11.15,52,.16,21.8c0-4.34-.06-4.36,4.35-5.35L74.7.72c1-.22,1.94-.48,2.92-.66,1.66-.29,2.55.47,2.64,2.12.06,1.33.07,2.66.07,4Q80.35,36.42,80.34,66.66ZM30.48,73.83h0c0,5.66-.07,11.32,0,17,.06,3.7.62,4.19,4.32,4.72.49.07,1,.09,1.49.13,6.39.42,6.93-.06,6.94-6.34,0-10.16,0-20.31,0-30.47,0-7.33-.29-7,7.11-7.21,7.88-.21,8.58-1.07,8-8.72-.26-3.6-1-4.11-4.79-3.76-2.65.24-5.31.37-8,.55-8.13.57-16.25,1.19-24.38,1.68-2.88.17-4,1.4-4.09,4.36-.16,6.79,0,7,6.74,7,.67,0,1.33,0,2,0,4.15.09,4.46.33,4.52,4.65C30.53,62.84,30.48,68.34,30.48,73.83Z"/><path class="cls-1" d="M85.48,82.77c0-6.81-.07-13.62,0-20.43,0-3.86.52-4.32,4.33-4.4,4.65-.1,9.3,0,14,0,2.52,0,3.6,1,3.59,3.57-.06,12.13,0,24.26-.08,36.38a9,9,0,0,1-4.59,7.85,18.32,18.32,0,0,1-14.87,1.87c-2.36-.63-2.34-2.53-2.35-4.37C85.46,96.4,85.48,89.58,85.48,82.77Z"/><path class="cls-1" d="M134.35,77.81c0,3.17,0,6.33,0,9.5,0,3.69-1.84,6.26-5,8-4.27,2.31-8.85,2.7-13.58,2.54-2-.06-3.16-.89-3.17-3q0-13.48,0-27c0-2.06,1.2-3,3.17-3,5.16,0,10.33,0,15.49,0,2.41,0,3.18,1.29,3.15,3.48,0,3.16,0,6.33,0,9.49Z"/><path class="cls-1" d="M134.34,46.49A10.79,10.79,0,0,1,123.7,57.41c-5.69,0-11.07-5.25-11.09-10.71a10.87,10.87,0,0,1,11.09-11C129.92,35.86,134.44,40.43,134.34,46.49Z"/><path class="cls-1" d="M85.47,39.65v-1c0-7,3.45-10.4,9.93-9.73a10.86,10.86,0,0,1,9.54,12.38A11,11,0,0,1,93.2,50.58c-5.18-.52-7.63-3.19-7.72-8.43C85.46,41.32,85.48,40.48,85.47,39.65Z"/></g></g></svg>