<?xml version="1.0" encoding="utf-8"?>
<!-- Generator: Adobe Illustrator 22.0.1, SVG Export Plug-In . SVG Version: 6.00 Build 0)  -->
<svg version="1.1" id="Layer_1" xmlns="http://www.w3.org/2000/svg" xmlns:xlink="http://www.w3.org/1999/xlink" x="0px" y="0px"
	 viewBox="0 0 423 100" preserveAspectRatio="xMinYMid meet" xml:space="preserve">
<style type="text/css">
	.st0{fill:#F7A800;}
	.st1{fill:#231F20;}
</style>
<circle class="st0" cx="55.7" cy="49.1" r="46.6"/>
<path class="st1" d="M79.7,56.5c-0.5-0.8-1.4,0-1.4,0C75,59,69.8,62.6,63.5,66.7c1.2-3.4,1.2-5.3,0.3-6.3c-1.3-1.5-2.5-1.7-4.3-1.1
	c-1.8,0.5-5.6,3.3-7.3,3.9c-2.3-0.8-4.8-3-5-3.4c0.2-0.2,0.5-1.2,1.5-1.2c1-0.1,1.2-0.9,1.1-1.2c-0.1-0.3-0.5-1.2-0.3-1.5
	s1-0.3,1.5-0.3c0.5,0.1,1.9,0.7,2.6,0.7c0.7,0.1,0.9-0.5,0.8-0.8c-0.1-0.3,0.1-0.8,0.1-1.4c0.1-0.6-0.8-0.7-1.4-0.4
	c-0.6,0.3-1-0.8,0.4-1.5c1.3-0.6,2.3,0.3,2.4,0.9c0.1,0.5,0.9,0.6,1.2-0.1c0.4-1,0.1-1.8-0.7-2.3c-1.2-0.8-1.4-2.1-1.4-2.3
	c0.1-0.2,0.3-0.8,0.8-1.1c0.2-0.1,0.2-0.5-0.1-0.5s-1.1-0.1-1.3-1.2c2.5-0.7,3.5-3.2,3.6-3.6c0.4-0.9-0.2-1.1-0.6-0.7
	c-0.2,0.2-1,1.2-1.7,1.6c-2.1,1.1-3.9,0.6-3.9,0.6c-0.4-0.2-2.8-4.3-9.8-10.2c-1.9-1.6-4.5-1-4.4-0.4c0.1,0.5,1.9,0.2,2.6,1.2
	c0.4,0.5,3.4,6.8,2.8,11.7c0,0.2-2.6,0.5-3.1,0.5s-2.2,0.2-2.7,0.2s-0.5,0.5-0.1,0.7s5.8,0.2,5.9,0.5c0.3,0.6,0.2,1.7-0.6,2.8
	c-1.7-1-8.4-4.6-19.8-2.6C9.5,50.1,2.9,46.3,2.9,46.3L2.1,53c0,0,5.7,0.3,6,0.3c3.5,0,7.1-0.1,10.6-0.7c2.9-0.5,5.6-1.7,8.5-2.1
	c2.8-0.4,5.8-0.6,8.6-0.1c1.5,0.2,3.1,0.8,4.4,1.5C29.4,50.5,15.7,52.6,7,68.1c0,0,13-0.8,14.4,11.4c0,0,4.1-12,10.7-16.9
	c0.2-0.1,0.4-0.2,0.6-0.3c0,0.1-0.1,0.2-0.1,0.3c-2.4,8.5,1,15.5,6.2,17.8c0,0,0.4,0.2,1.3,0.3c-0.2,0.1-0.3,0.2-0.5,0.2l-6.2,2.8
	c0,0-1.6-1.3-2.4,0.6c0,0-5,2.4-18.7,0.1c0,0,5.2,6.2-1.1,13.3c0,0,12.4-0.5,20.9-10.5c0,0,1.7,1.1,2.1-1.5c0,0,4.6-2.3,11.2-6
	c2.2-0.8,5.1-2.2,8.6-4.6c0.1,0,0.2,5.5,0.1,6.4c0,0.2-0.6,1.7-0.6,2.5c0,1.4,1,2.1,1.2,3.2l2.8-0.7c-0.2-0.7,0.2-0.9,0.2-0.9
	c0.3-0.1,0.7-0.1,1-0.1c0.7,0,1.4,0,2.1-0.1c1.3,0,2.6-0.5,3.5-1.3c0.8-0.7,1.2-1.7,1.1-2.7c0-0.1-0.3-1.3-0.3-1.2
	c-4.1,2.3-7,1.4-7,1.4c0-0.3,0-0.5,0-0.8l1.4-0.3c-0.2-0.7,0.3-0.9,0.3-0.9c0.3-0.1,0.7,0,1,0c0.7,0,1.4,0.1,2.1,0.1
	c1.3,0.1,2.6-0.3,3.6-1.1c0.8-0.6,1.4-1.6,1.4-2.6c0-0.1-0.2-1.3-0.2-1.3c-4.3,2-7.1,0.8-7.1,0.8c0-0.4,0.1-2.1,1-4.1
	c0.3-0.6,0.5-1.2,0.8-1.8c5.9-3.7,11.9-7.8,17.1-11.9C79.4,57.9,80.2,57.3,79.7,56.5z M44.9,63.7c0.3,0.2,3.4,1.9,3.3,2
	c-1.6,1.4-4.1,2.4-4.1,2.4C43.4,66.2,44.9,63.7,44.9,63.7z"/>
<g>
	<path class="st0" d="M121.8,32.1h8.2c7,0,13.4,2.1,13.4,9.8c0,7.5-5.4,10.2-12.3,10.2h-2.7v12.2H122V32.1H121.8z M128.2,47h2.2
		c3.2,0,6.1-1.1,6.1-4.8s-2.9-5-6.1-5h-2.2V47z"/>
	<path class="st0" d="M165.3,62.8c-2.2,1.3-4.8,1.9-8.2,1.9c-7.8,0-12.3-4.5-12.3-12.3c0-6.9,3.7-12.5,11-12.5
		c8.8,0,11.4,6.1,11.4,14.4h-16.3c0.3,3.8,2.9,5.9,6.7,5.9c3,0,5.6-1.1,7.8-2.4L165.3,62.8C165.4,62.8,165.3,62.8,165.3,62.8z
		 M161.1,50c-0.2-3-1.6-5.6-5-5.6c-3.5,0-5.3,2.4-5.4,5.6H161.1z"/>
	<path class="st0" d="M170.8,40.6h5.9v3.2h0.2c1.9-2.7,4.5-3.8,7.8-3.8c5.6,0,8,4,8,9.3v15h-6.2V51.6c0-2.9,0-6.9-4-6.9
		c-4.5,0-5.4,4.8-5.4,7.8v11.7h-6.2L170.8,40.6L170.8,40.6z"/>
	<path class="st0" d="M213.5,61.5L213.5,61.5c-1.9,2.2-4.5,3.2-7.4,3.2c-7.2,0-9.9-5.9-9.9-12.5s2.7-12.3,9.9-12.3
		c3,0,5.3,1.1,7,3.4h0.2V29.7h6.2v34.6h-5.9v-2.7h-0.1V61.5z M207.9,59.9c4.2,0,5.4-4.3,5.4-7.7s-1.6-7.5-5.6-7.5s-5.1,4.3-5.1,7.5
		C202.6,55.6,203.7,59.9,207.9,59.9z"/>
	<path class="st0" d="M224.8,29.7h6.2v34.6h-6.2V29.7z"/>
	<path class="st0" d="M255.4,62.8c-2.2,1.3-4.8,1.9-8.2,1.9c-7.8,0-12.3-4.5-12.3-12.3c0-6.9,3.7-12.5,11-12.5
		c8.8,0,11.4,6.1,11.4,14.4H241c0.3,3.8,2.9,5.9,6.7,5.9c3,0,5.6-1.1,7.8-2.4v5C255.5,62.8,255.4,62.8,255.4,62.8z M251.2,50
		c-0.2-3-1.6-5.6-5-5.6c-3.5,0-5.3,2.4-5.4,5.6H251.2z"/>
	<path class="st0" d="M296.4,63.8c-2.4,0.5-5,1-7.4,1c-10.4,0-17.6-5.3-17.6-16c0-11,6.7-17.1,17.6-17.1c2.1,0,5,0.5,7.2,1.3
		l-0.5,5.4c-2.4-1.4-4.6-1.8-6.9-1.8c-6.6,0-10.7,5.1-10.7,11.7s4,11.5,10.9,11.5c2.6,0,5.6-0.5,7-1.3L296.4,63.8z"/>
	<path class="st0" d="M310.3,39.9c7,0,12.5,4.8,12.5,12.6c0,6.9-4.5,12.3-12.5,12.3c-7.8,0-12.3-5.4-12.3-12.3
		C298,44.7,303.2,39.9,310.3,39.9z M310.3,59.9c4.8,0,5.9-4.2,5.9-8.2c0-3.7-1.9-7-5.9-7s-5.9,3.5-5.9,7
		C304.4,55.8,305.6,59.9,310.3,59.9z"/>
	<path class="st0" d="M326.6,29.7h6.2v34.6h-6.2V29.7z"/>
	<path class="st0" d="M338.1,29.7h6.2v34.6h-6.2V29.7z"/>
	<path class="st0" d="M368.7,62.8c-2.2,1.3-4.8,1.9-8.2,1.9c-7.8,0-12.3-4.5-12.3-12.3c0-6.9,3.7-12.5,11-12.5
		c8.8,0,11.4,6.1,11.4,14.4h-16.3c0.3,3.8,2.9,5.9,6.7,5.9c3,0,5.6-1.1,7.8-2.4v5C368.8,62.8,368.7,62.8,368.7,62.8z M364.5,50
		c-0.2-3-1.6-5.6-5-5.6c-3.5,0-5.3,2.4-5.4,5.6H364.5z"/>
	<path class="st0" d="M395.9,40.6V62c0,6.4-2.6,12.5-12.5,12.5c-2.4,0-5.3-0.3-8.2-1.6l0.5-5.3c1.9,1,5,2.1,6.9,2.1
		c6.9,0,7.2-5.1,7.2-9.3h-0.2c-1.1,2.1-3.8,3.8-7.4,3.8c-7,0-9.6-5.6-9.6-12c0-5.8,2.9-12.3,10.1-12.3c3.2,0,5.6,1.1,7.2,3.8h0.2
		v-3.2C390.1,40.6,395.9,40.6,395.9,40.6z M389.8,52.1c0-4-1.6-7.4-5.1-7.4c-4.2,0-5.6,3.8-5.6,7.5c0,3.2,1.8,7.2,5.3,7.2
		C388.2,59.5,389.8,56.1,389.8,52.1z"/>
	<path class="st0" d="M420.2,62.8c-2.2,1.3-4.8,1.9-8.2,1.9c-7.8,0-12.3-4.5-12.3-12.3c0-6.9,3.7-12.5,11-12.5
		c8.8,0,11.4,6.1,11.4,14.4h-16.3c0.3,3.8,2.9,5.9,6.7,5.9c3,0,5.6-1.1,7.8-2.4v5C420.3,62.8,420.2,62.8,420.2,62.8z M416,50
		c-0.2-3-1.6-5.6-5-5.6c-3.5,0-5.3,2.4-5.4,5.6H416z"/>
</g>
</svg>
